<mxfile host="app.diagrams.net" modified="2023-11-13T20:09:31.539Z" agent="Mozilla/5.0 (Windows NT 10.0; Win64; x64) AppleWebKit/537.36 (KHTML, like Gecko) Chrome/119.0.0.0 Safari/537.36 Edg/119.0.0.0" etag="9l5SAu5mSSbUUknv7hvV" version="22.1.0" type="device">
  <diagram name="Seite-1" id="wUEx7ndTb_bHJJqqPWa8">
    <mxGraphModel dx="1010" dy="682" grid="1" gridSize="10" guides="1" tooltips="1" connect="1" arrows="1" fold="1" page="1" pageScale="1" pageWidth="827" pageHeight="1169" math="0" shadow="0">
      <root>
        <mxCell id="0" />
        <mxCell id="1" parent="0" />
        <mxCell id="tBT3JFBlceWDcz8bJR0U-1" value="User" style="shape=umlActor;verticalLabelPosition=bottom;verticalAlign=top;html=1;outlineConnect=0;" parent="1" vertex="1">
          <mxGeometry x="60" y="255" width="30" height="60" as="geometry" />
        </mxCell>
        <mxCell id="tBT3JFBlceWDcz8bJR0U-2" value="Python Script" style="rounded=0;whiteSpace=wrap;html=1;verticalAlign=top;" parent="1" vertex="1">
          <mxGeometry x="230" y="190" width="310" height="190" as="geometry" />
        </mxCell>
        <mxCell id="tBT3JFBlceWDcz8bJR0U-3" value="Azure OpenAI Service" style="rounded=0;whiteSpace=wrap;html=1;verticalAlign=top;" parent="1" vertex="1">
          <mxGeometry x="600" y="190" width="150" height="190" as="geometry" />
        </mxCell>
        <mxCell id="tBT3JFBlceWDcz8bJR0U-4" value="" style="shape=image;verticalLabelPosition=bottom;labelBackgroundColor=default;verticalAlign=top;aspect=fixed;imageAspect=0;image=https://swimburger.net/media/ppnn3pcl/azure.png;" parent="1" vertex="1">
          <mxGeometry x="640" y="120" width="60" height="60" as="geometry" />
        </mxCell>
        <mxCell id="tBT3JFBlceWDcz8bJR0U-8" style="edgeStyle=orthogonalEdgeStyle;rounded=0;orthogonalLoop=1;jettySize=auto;html=1;entryX=0;entryY=0.5;entryDx=0;entryDy=0;" parent="1" source="tBT3JFBlceWDcz8bJR0U-5" target="tBT3JFBlceWDcz8bJR0U-6" edge="1">
          <mxGeometry relative="1" as="geometry" />
        </mxCell>
        <mxCell id="tBT3JFBlceWDcz8bJR0U-5" value="Streamlit" style="rounded=0;whiteSpace=wrap;html=1;" parent="1" vertex="1">
          <mxGeometry x="250" y="255" width="90" height="60" as="geometry" />
        </mxCell>
        <mxCell id="tBT3JFBlceWDcz8bJR0U-9" style="edgeStyle=orthogonalEdgeStyle;rounded=0;orthogonalLoop=1;jettySize=auto;html=1;entryX=0;entryY=0.5;entryDx=0;entryDy=0;" parent="1" source="tBT3JFBlceWDcz8bJR0U-6" target="AnVZSIy5jcUAXXzMb6Uj-1" edge="1">
          <mxGeometry relative="1" as="geometry" />
        </mxCell>
        <mxCell id="tBT3JFBlceWDcz8bJR0U-6" value="OpenAI SDK" style="rounded=0;whiteSpace=wrap;html=1;" parent="1" vertex="1">
          <mxGeometry x="400" y="255" width="90" height="60" as="geometry" />
        </mxCell>
        <mxCell id="tBT3JFBlceWDcz8bJR0U-7" value="HTTP" style="edgeStyle=orthogonalEdgeStyle;rounded=0;orthogonalLoop=1;jettySize=auto;html=1;" parent="1" source="tBT3JFBlceWDcz8bJR0U-1" target="tBT3JFBlceWDcz8bJR0U-5" edge="1">
          <mxGeometry relative="1" as="geometry" />
        </mxCell>
        <mxCell id="AnVZSIy5jcUAXXzMb6Uj-1" value="GPT-3.5-Turbo" style="rounded=0;whiteSpace=wrap;html=1;" vertex="1" parent="1">
          <mxGeometry x="630" y="255" width="90" height="60" as="geometry" />
        </mxCell>
      </root>
    </mxGraphModel>
  </diagram>
</mxfile>
